<?xml version="1.0" standalone="no"?>
<!DOCTYPE svg PUBLIC "-//W3C//DTD SVG 20010904//EN"
 "http://www.w3.org/TR/2001/REC-SVG-20010904/DTD/svg10.dtd">
<svg version="1.0" xmlns="http://www.w3.org/2000/svg"
 width="290.000000pt" height="75.000000pt" viewBox="0 0 290.000000 75.000000"
 preserveAspectRatio="xMidYMid meet">

<g transform="translate(0.000000,75.000000) scale(0.100000,-0.100000)"
fill="#000000" stroke="none">
<path d="M1150 657 c-14 -7 -31 -25 -38 -39 -20 -42 3 -82 73 -132 62 -43 78
-73 55 -102 -31 -36 -120 5 -120 56 0 12 -4 18 -10 15 -5 -3 -10 -19 -10 -35
0 -42 40 -70 102 -70 41 0 54 5 79 29 50 50 34 93 -58 152 -53 35 -63 46 -63
70 0 64 88 59 112 -7 14 -40 28 -44 28 -8 0 38 -16 61 -51 73 -41 14 -68 14
-99 -2z"/>
<path d="M205 523 c-31 -76 -59 -144 -62 -150 -3 -7 0 -13 6 -13 6 0 18 18 27
40 l16 40 59 0 c54 0 59 -2 65 -24 8 -33 33 -54 72 -62 37 -7 40 -2 14 24 -10
10 -36 63 -57 118 -58 153 -63 164 -73 164 -6 0 -35 -62 -67 -137z m86 -40 c8
-22 6 -23 -36 -23 -52 0 -54 5 -24 70 l20 45 16 -35 c8 -19 19 -45 24 -57z"/>
<path d="M842 651 c-21 -13 -10 -46 16 -49 27 -4 40 22 22 43 -14 17 -20 18
-38 6z"/>
<path d="M1530 652 c0 -6 7 -12 15 -16 12 -4 15 -30 15 -141 l0 -135 25 0 c24
0 24 2 27 93 l3 92 30 0 c35 0 43 -19 44 -117 1 -66 2 -68 26 -68 25 0 25 1
25 84 0 107 -16 131 -84 130 l-45 -1 -3 41 c-3 40 -4 41 -40 44 -21 2 -38 -1
-38 -6z"/>
<path d="M697 633 c-4 -3 -7 -17 -7 -30 0 -13 -7 -26 -15 -29 -8 -4 -15 -10
-15 -15 0 -5 7 -9 15 -9 12 0 15 -16 15 -83 0 -69 3 -87 18 -100 27 -24 92
-20 92 5 0 6 -7 7 -16 4 -32 -12 -44 13 -44 95 0 78 0 79 25 79 31 0 33 17 3
22 -18 2 -24 11 -26 36 -2 23 -8 32 -21 32 -10 0 -21 -3 -24 -7z"/>
<path d="M2402 628 c-7 -7 -12 -22 -12 -35 0 -14 -6 -23 -15 -23 -8 0 -15 -4
-15 -10 0 -5 7 -10 15 -10 12 0 15 -16 15 -83 0 -69 3 -87 18 -100 19 -18 48
-22 76 -11 23 9 20 27 -3 19 -30 -9 -42 25 -39 103 3 61 5 67 26 70 12 2 22 7
22 12 0 5 -10 10 -22 12 -18 2 -24 11 -26 36 -3 33 -19 41 -40 20z"/>
<path d="M515 571 c-11 -4 -40 -6 -65 -4 -40 4 -43 3 -27 -10 14 -12 17 -31
17 -106 l0 -91 30 0 30 0 0 96 0 95 33 -3 32 -3 3 -92 3 -93 29 0 30 0 0 84
c0 65 -4 88 -17 105 -20 24 -68 34 -98 22z"/>
<path d="M1393 564 c-40 -20 -57 -61 -50 -120 6 -57 31 -84 83 -91 30 -4 45 0
67 17 15 12 27 26 27 31 0 6 -12 1 -26 -10 -33 -26 -56 -27 -79 -1 -21 23 -25
104 -6 138 17 31 71 28 86 -5 5 -13 14 -23 18 -23 10 0 0 50 -12 63 -16 16
-76 17 -108 1z"/>
<path d="M1871 571 c-8 -5 -38 -7 -65 -4 -49 5 -50 5 -28 -11 20 -16 22 -25
22 -107 0 -88 0 -89 25 -89 24 0 24 2 27 93 3 87 4 92 25 95 31 4 43 -30 43
-119 0 -67 1 -69 25 -69 25 0 25 0 25 95 0 95 0 95 25 95 33 0 45 -31 45 -121
0 -67 1 -69 25 -69 25 0 25 1 25 85 0 78 -2 88 -25 110 -27 28 -48 31 -85 12
-20 -11 -30 -10 -50 0 -30 15 -40 16 -59 4z"/>
<path d="M819 551 c18 -18 21 -34 21 -106 0 -84 0 -85 25 -85 l26 0 -3 103 -3
102 -43 3 -43 3 20 -20z"/>
<path d="M2122 558 c11 -9 17 -36 21 -92 4 -68 8 -82 28 -99 17 -14 32 -17 59
-13 19 4 50 6 68 6 l32 -1 0 106 0 105 -30 0 -29 0 -3 -91 c-2 -76 -6 -94 -21
-103 -30 -18 -47 17 -47 95 0 92 -4 99 -53 99 -34 0 -38 -2 -25 -12z"/>
<path d="M2527 563 c-10 -10 -8 -53 2 -53 5 0 11 9 14 20 4 16 14 20 47 20 30
0 39 -3 34 -12 -4 -7 -29 -48 -56 -90 -26 -43 -48 -80 -48 -83 0 -3 41 -5 90
-5 53 0 90 4 90 10 0 6 -25 10 -55 10 l-55 0 51 81 c73 117 75 109 -23 109
-47 0 -88 -3 -91 -7z"/>
<path d="M940 480 c0 -18 7 -20 60 -20 53 0 60 2 60 20 0 18 -7 20 -60 20 -53
0 -60 -2 -60 -20z"/>
<path d="M953 205 c0 -33 2 -45 4 -27 2 18 2 45 0 60 -2 15 -4 0 -4 -33z"/>
<path d="M792 205 c0 -16 2 -22 5 -12 2 9 2 23 0 30 -3 6 -5 -1 -5 -18z"/>
<path d="M1423 190 c0 -25 2 -35 4 -22 2 12 2 32 0 45 -2 12 -4 2 -4 -23z"/>
<path d="M833 185 c0 -22 2 -30 4 -17 2 12 2 30 0 40 -3 9 -5 -1 -4 -23z"/>
<path d="M1092 190 c0 -19 2 -27 5 -17 2 9 2 25 0 35 -3 9 -5 1 -5 -18z"/>
<path d="M1193 185 c0 -22 2 -30 4 -17 2 12 2 30 0 40 -3 9 -5 -1 -4 -23z"/>
<path d="M1473 185 c0 -22 2 -30 4 -17 2 12 2 30 0 40 -3 9 -5 -1 -4 -23z"/>
<path d="M1562 190 c0 -19 2 -27 5 -17 2 9 2 25 0 35 -3 9 -5 1 -5 -18z"/>
<path d="M1860 211 c0 -6 4 -13 10 -16 6 -3 7 1 4 9 -7 18 -14 21 -14 7z"/>
<path d="M1052 180 c0 -19 2 -27 5 -17 2 9 2 25 0 35 -3 9 -5 1 -5 -18z"/>
<path d="M1522 180 c0 -19 2 -27 5 -17 2 9 2 25 0 35 -3 9 -5 1 -5 -18z"/>
<path d="M1942 185 c0 -16 2 -22 5 -12 2 9 2 23 0 30 -3 6 -5 -1 -5 -18z"/>
</g>
</svg>
